<svg height="512" viewBox="0 0 512 512" width="512" xmlns="http://www.w3.org/2000/svg"><g id="solid"><path d="m64 392h16v-112a8 8 0 0 1 8-8h80a8 8 0 0 1 8 8v112h16v-152h-128z"/><path d="m96 288h64v16h-64z"/><path d="m360 336h25.376a23.985 23.985 0 0 1 30.624-14.624v-17.376h-56z"/><path d="m96 320h24v72h-24z"/><path d="m256 192a40 40 0 1 0 -40-40 40.045 40.045 0 0 0 40 40zm-8-64a8 8 0 0 1 16 0v19.056l11.578 5.789a8 8 0 1 1 -7.156 14.31l-16-8a8 8 0 0 1 -4.422-7.155z"/><path d="m384.544 272h-24.544v16h44.686l-13.071-13.071a9.936 9.936 0 0 0 -7.071-2.929z"/><path d="m136 320h24v72h-24z"/><path d="m208 376h240v16h-240z"/><path d="m208 360h46.131a24.015 24.015 0 0 1 -4.755-8h-17.376a8 8 0 0 1 -8-8v-22.941a27.877 27.877 0 0 1 23.584-27.649l27.674-4.421 16.942-22.589a26.127 26.127 0 0 1 20.8-10.4h71.544a25.831 25.831 0 0 1 18.385 7.615l26.728 26.728.01.012a7.97 7.97 0 0 1 2.333 5.645v34.527a7.954 7.954 0 0 1 -1.622 4.816 23.933 23.933 0 0 1 -4.509 24.657h22.131v-120h-240z"/><path d="m306.586 176a56.251 56.251 0 0 1 -11.448 16h160.862a8 8 0 0 1 0 16h-400a8 8 0 0 1 0-16h160.862a56.251 56.251 0 0 1 -11.448-16h-173.414v48h448v-48z"/><circle cx="272" cy="344" r="8"/><path d="m289.869 360h100.262a24.015 24.015 0 0 1 -4.755-8h-90.752a24.015 24.015 0 0 1 -4.755 8z"/><path d="m250.107 309.209a11.948 11.948 0 0 0 -10.107 11.85v14.941h9.376a24 24 0 0 1 45.248 0h49.376v-32h-61.278z"/><circle cx="408" cy="344" r="8"/><path d="m305 276-9 12h48v-16h-31a10.046 10.046 0 0 0 -8 4z"/><path d="m32 408h448v16h-448z"/></g></svg>